<svg version="1" xmlns="http://www.w3.org/2000/svg" width="786.667" height="786.667" viewBox="0 0 590.000000 590.000000"><path d="M284.7 81.6c-.1.1-3.8.5-8.2.9-32.2 2.7-64 12.8-90.3 28.7-12.6 7.6-32 23.1-39.6 31.7-1.2 1.3-34.6 34.9-74.3 74.6-58 58-72.3 72.8-72.3 74.9 0 3 3.5 6.6 6.5 6.6 1.6 0 24.6-22.4 79.1-76.8 89.4-89.1 92.4-91.8 123.5-106.6 22.5-10.7 46.8-17.3 71.4-19.1 12.5-1 33.3-.4 41.5 1.1 1.4.2 4.3.7 6.5 1 3.2.5 18.8 4 25.5 5.8 6.8 1.9 21.5 7.7 30.8 12.3 17.3 8.6 34.9 20.7 49.3 34l4.6 4.3 5.2-5.1 5.2-5.1-4.8-4.5c-20.3-19.1-46.5-35.5-70.8-44.3-4.9-1.8-9.9-3.6-11-4.1-1.1-.4-4-1.4-6.5-2-2.5-.7-4.9-1.4-5.5-1.5-5.3-1.5-27.7-5.4-34-6-7.1-.6-31.3-1.2-31.8-.8z"/><path d="M273.1 120.2c-2.5.4-6.3 1-8.5 1.3-11.6 1.7-31.4 8-45.1 14.5-12.3 5.7-21.4 11.3-32.5 19.6-12.1 9.1-160.8 157.9-161.4 161.6-.6 3.4 2.5 6.8 6.3 6.8 2.4 0 14.3-11.5 80.2-77.3 85-84.8 85.6-85.3 109.4-97.2 19.6-9.8 37.6-15 58-17 6.1-.6 28.3-.7 31-.2 1.1.3 4.6.8 7.9 1.2 23.3 2.8 47.2 11.7 68.1 25.3 7.2 4.7 20.5 15.3 23.9 19.1 1.1 1.1 2.3 2.1 2.7 2.1 1 0 8.4-7.9 8.4-9 0-1.4-12.9-12.6-22-19.1-23.3-16.6-50.8-27.3-80.2-31.3-11.5-1.6-38.1-1.8-46.2-.4z"/><path d="M281 154.1c-2.5.4-6.3.9-8.5 1.3-24 3.5-49.8 15.3-69.2 31.4-3.2 2.7-39 38.1-79.5 78.7-75.9 75.8-75.9 75.8-73 80.1 1.2 1.9 5 3.4 6.9 2.8 1-.4 35.8-34.5 77.3-75.9 41.5-41.3 78.2-77.2 81.5-79.7 13.5-10.1 29.2-17.6 46.6-22.3 22.5-6 50.8-5.2 72.9 2.2 17.1 5.7 35.2 16.1 46.8 26.8l5.8 5.4 4.8-4.6 4.8-4.5-4.3-4c-19.5-17.6-42.4-29.5-67.9-35.2-12-2.7-35-4-45-2.5z"/><path d="M281.7 210.1c-23.1 3.2-45.4 16.8-58.6 35.9-21.2 30.6-21 70.5.4 100.5 16.7 23.3 45.1 37.1 73.8 35.9 41.8-1.9 76.2-33 82.2-74.4 5.4-37.1-15.5-75.4-49.5-90.8-14.8-6.6-32.5-9.2-48.3-7.1z"/><path d="M531.1 242c-.7.4-35.5 34.9-77.4 76.7-68.5 68.3-77.2 76.7-86.2 82.6-23.3 15.3-46.6 22.2-74.5 22-10.8 0-13.6-.3-22.7-1.9-21.7-3.7-46.8-16-62.8-30.6-2.9-2.6-5.7-4.8-6.2-4.8-1.5 0-8.3 6.9-8.3 8.4 0 1.6 14.6 13.7 23.5 19.4 12.7 8.2 33.6 17 44.5 18.8 1.9.3 3.8.8 4.1.9.3.2 2.8.7 5.5 1 2.7.4 7.4 1 10.4 1.4 6.3.8 22 .7 30-.3 27.9-3.3 55.3-15.1 76.1-32.8 3.5-3 39.4-38.5 79.7-78.8 76.9-76.9 75.6-75.5 72-80.3-1.5-1.9-5.9-2.9-7.7-1.7z"/><path d="M477.9 343.3c-81.9 81.7-84.4 83.9-104.6 94.9-13.2 7.2-31.6 14-43.8 16.4-1.1.2-3.1.6-4.5.9-36.9 7.3-78 .5-112.4-18.8-9.8-5.5-26.1-17.5-31.5-23.1-1.9-2-3.8-3.6-4.3-3.6-.9 0-8.8 7.9-8.8 8.8 0 .8 5.5 5.7 14.9 13.3 24 19.5 51.1 31.3 86.1 37.4 6.2 1.1 39.3 1.4 46 .4 3.6-.5 8.3-1.2 10.5-1.5 28-3.9 63.7-21.2 87.7-42.4 13.4-11.9 150.9-150.6 151.2-152.6.4-2.1-1.1-5.5-2.8-6.6-4.3-2.9-4.2-2.9-83.7 76.5z"/><path d="M581.3 291.7c-.7.2-35.6 34.7-77.5 76.6-86.5 86.4-89.4 88.9-117.1 103.2-22 11.3-46.8 19-67.7 21.1-3 .2-7.5.7-10 .9-9.1 1-31.7.4-40.7-1-1.8-.3-5-.8-7-1.1-2.1-.3-4.5-.7-5.3-.9-.8-.3-3.3-.7-5.5-1.1-6.9-1-32.6-10-42.8-14.9-16.3-7.8-35.9-20.6-46.7-30.6-1.9-1.8-4.9-4.5-6.6-6.1l-3.1-2.9-5.2 5.2-5.1 5.1 3.9 3.7c16.5 15.5 29 24.4 48.6 34.7 21.3 11.1 45.6 19.3 65.1 22 2.7.3 5.1.8 5.4.9 1.3.8 21.3 1.9 32 1.9 10.6-.1 23.4-1 27-1.9.8-.2 3.8-.6 6.5-1 2.8-.3 7-1.1 9.5-1.6 2.5-.6 5.4-1.2 6.4-1.5 11.3-2.3 33.9-10.5 46.9-17 16.5-8.3 38.9-25.2 51.6-38.8 2-2.1 35.7-35.9 74.9-75.1 57.2-57.3 71.2-71.8 71.2-73.9 0-4.3-4.8-7.6-8.7-5.9z"/></svg>